<?xml version="1.0" encoding="UTF-8" standalone="no"?>
<!DOCTYPE svg PUBLIC "-//W3C//DTD SVG 1.1//EN" "http://www.w3.org/Graphics/SVG/1.1/DTD/svg11.dtd">
<svg width="100%" height="100%" viewBox="0 0 600 400" version="1.1" xmlns="http://www.w3.org/2000/svg" xmlns:xlink="http://www.w3.org/1999/xlink" xml:space="preserve" xmlns:serif="http://www.serif.com/" style="fill-rule:evenodd;clip-rule:evenodd;stroke-linejoin:round;stroke-miterlimit:2;">
    <g id="Layer1">
        <rect x="-1028.23" y="-248.288" width="1712.17" height="4055.19" style="fill:#3d4345;"/>
        <rect x="-13.101" y="-13.059" width="626.202" height="426.201" style="fill:url(#_Radial1);"/>
        <g id="CorelEMF" serif:id="CorelEMF">
        </g>
        <g id="CorelEMF1" serif:id="CorelEMF">
        </g>
        <g>
            <g id="CorelEMF2" serif:id="CorelEMF">
            </g>
        </g>
        <g id="CorelEMF3" serif:id="CorelEMF">
        </g>
        <g id="CorelEMF4" serif:id="CorelEMF">
        </g>
        <path d="M282.65,203.269L282.65,180.324L277.687,180.324C273.394,180.324 269.913,176.844 269.913,172.551L269.913,164.43C269.913,160.137 273.394,156.657 277.687,156.657L284.194,156.657L284.194,108.375C284.194,101.491 290.719,94.644 300,94.644L300.109,94.645C309.332,94.698 315.806,101.518 315.806,108.375L315.806,156.657L322.313,156.657C326.606,156.657 330.086,160.137 330.086,164.43L330.086,172.551C330.086,176.844 326.606,180.324 322.313,180.324L317.35,180.324L317.35,203.269C329.021,193.963 336.508,179.622 336.508,163.547C336.508,158.585 335.794,153.788 334.465,149.255C333.345,145.426 335.12,141.344 338.684,139.552C357.883,129.896 412.521,102.417 412.521,102.417C426.066,147.953 387.459,218.566 339.343,229.178L339.313,229.156C335.748,226.611 331.793,224.64 327.663,223.193C324.316,222.019 320.857,221.188 317.35,220.675L317.35,236.784L367.14,236.784L367.14,274.014L313.567,274.014L307.349,292.057C306.063,295.578 301.804,304.353 300,305.438C298.196,304.353 293.937,295.578 292.651,292.057L286.433,274.014L232.86,274.014L232.86,236.784L282.65,236.784L282.65,220.675C279.144,221.188 275.685,222.019 272.337,223.193C268.207,224.64 264.252,226.611 260.687,229.156C260.687,229.156 260.675,229.164 260.666,229.171C260.654,229.173 260.642,229.173 260.631,229.171C212.527,218.54 173.936,147.945 187.479,102.417C187.479,102.417 242.116,129.896 261.316,139.552C264.88,141.344 266.655,145.426 265.535,149.255C264.206,153.788 263.492,158.585 263.492,163.547C263.492,179.622 270.979,193.963 282.65,203.269ZM294.654,274.014L305.346,274.014L300,289.525L294.654,274.014ZM359.987,243.936L359.987,266.861C359.987,266.861 240.013,266.861 240.013,266.861C240.013,266.861 240.013,243.936 240.013,243.936C240.013,243.936 359.987,243.936 359.987,243.936L359.987,243.936ZM246.762,233.849L246.762,227.088L206.517,227.088L216.22,245.703L206.517,264.318L229.926,264.318L229.926,236.784C229.926,235.163 231.239,233.849 232.86,233.849L246.762,233.849ZM353.238,233.849L353.238,227.088L393.483,227.088L383.78,245.703L393.483,264.318L370.074,264.318L370.074,236.784C370.074,235.163 368.761,233.849 367.14,233.849L353.238,233.849ZM309.576,236.784L290.423,236.784L290.423,175.641L309.576,175.641L309.576,236.784ZM200.986,147.43C198.135,147.209 195.759,145.16 195.12,142.373C192.924,132.761 192.181,123.221 193.245,114.351C193.245,114.351 257.834,146.834 257.834,146.834C256.265,152.132 255.422,157.742 255.422,163.547C255.422,184.041 265.919,202.103 281.827,212.64C277.691,213.223 273.611,214.194 269.667,215.577C266.878,216.554 264.159,217.739 261.555,219.138C259.951,220.011 258.055,220.173 256.326,219.583C250.833,217.707 245.527,214.975 240.479,211.565L248.714,195.867C248.714,195.867 244.093,200.577 240.487,204.253C238.055,206.731 234.11,206.876 231.503,204.583C228.843,202.209 226.273,199.659 223.814,196.956L241.008,181.861C241.008,181.861 230.763,186.838 224.489,189.886C221.666,191.257 218.268,190.429 216.392,187.914C213.93,184.578 211.617,181.096 209.476,177.509L236.837,166.34C236.837,166.34 219.406,169.192 210.77,170.606C207.912,171.074 205.086,169.605 203.827,166.997C201.865,162.89 200.124,158.698 198.639,154.471L237.296,150.244C237.296,150.244 211.736,148.263 200.986,147.43ZM399.014,147.43C401.865,147.209 404.241,145.16 404.88,142.373C407.076,132.761 407.819,123.221 406.755,114.351C406.755,114.351 342.166,146.834 342.166,146.834C343.735,152.132 344.578,157.742 344.578,163.547C344.578,184.041 334.081,202.103 318.173,212.64C322.309,213.223 326.389,214.194 330.333,215.577C333.122,216.554 335.841,217.739 338.445,219.138C340.049,220.011 341.945,220.173 343.674,219.583C349.167,217.707 354.473,214.975 359.521,211.565L351.286,195.867C351.286,195.867 355.907,200.577 359.513,204.253C361.945,206.731 365.89,206.876 368.497,204.583C371.157,202.209 373.727,199.659 376.186,196.956L358.992,181.861C358.992,181.861 369.237,186.838 375.511,189.886C378.334,191.257 381.732,190.429 383.608,187.914C386.07,184.578 388.383,181.096 390.524,177.509L363.163,166.34C363.163,166.34 380.594,169.192 389.23,170.606C392.088,171.074 394.914,169.605 396.173,166.997C398.135,162.89 399.876,158.698 401.361,154.471L362.704,150.244C362.704,150.244 388.264,148.263 399.014,147.43ZM322.313,164.43L277.687,164.43L277.687,172.551L322.313,172.551L322.313,164.43ZM308.033,154.702C308.033,154.309 307.877,153.931 307.598,153.653C307.32,153.375 306.943,153.219 306.55,153.219L293.45,153.219C293.057,153.219 292.68,153.375 292.402,153.653C292.123,153.931 291.967,154.309 291.967,154.702L291.967,159.856C291.967,160.25 292.123,160.627 292.402,160.905C292.68,161.183 293.057,161.34 293.45,161.34L306.55,161.34C306.943,161.34 307.32,161.183 307.598,160.905C307.877,160.627 308.033,160.25 308.033,159.856L308.033,154.702ZM308.033,143.491C308.033,143.098 307.877,142.72 307.598,142.442C307.32,142.164 306.943,142.008 306.55,142.008L293.45,142.008C293.057,142.008 292.68,142.164 292.402,142.442C292.123,142.72 291.967,143.098 291.967,143.491L291.967,148.645C291.967,149.039 292.123,149.416 292.402,149.694C292.68,149.973 293.057,150.129 293.45,150.129L306.55,150.129C306.943,150.129 307.32,149.973 307.598,149.694C307.877,149.416 308.033,149.039 308.033,148.645L308.033,143.491ZM308.033,132.28C308.033,131.887 307.877,131.51 307.598,131.231C307.32,130.953 306.943,130.797 306.55,130.797L293.45,130.797C293.057,130.797 292.68,130.953 292.402,131.231C292.123,131.51 291.967,131.887 291.967,132.28L291.967,137.435C291.967,137.828 292.123,138.205 292.402,138.483C292.68,138.762 293.057,138.918 293.45,138.918L306.55,138.918C306.943,138.918 307.32,138.762 307.598,138.483C307.877,138.205 308.033,137.828 308.033,137.435L308.033,132.28ZM308.033,121.069C308.033,120.676 307.877,120.299 307.598,120.02C307.32,119.742 306.943,119.586 306.55,119.586L293.45,119.586C293.057,119.586 292.68,119.742 292.402,120.02C292.123,120.299 291.967,120.676 291.967,121.069L291.967,126.224C291.967,126.617 292.123,126.994 292.402,127.273C292.68,127.551 293.057,127.707 293.45,127.707L306.55,127.707C306.943,127.707 307.32,127.551 307.598,127.273C307.877,126.994 308.033,126.617 308.033,126.224L308.033,121.069ZM291.967,108.337C291.995,105.066 295.584,102.417 300,102.417C304.433,102.417 308.033,105.087 308.033,108.375L308.033,115.013C308.033,115.406 307.877,115.783 307.598,116.062C307.32,116.34 306.943,116.496 306.55,116.496L293.45,116.496C293.057,116.496 292.68,116.34 292.402,116.062C292.123,115.783 291.967,115.406 291.967,115.013L291.967,108.375L291.967,108.337Z"/>
    </g>
    <defs>
        <radialGradient id="_Radial1" cx="0" cy="0" r="1" gradientUnits="userSpaceOnUse" gradientTransform="matrix(2.19595e-14,-366.128,358.626,2.24189e-14,300,200.041)"><stop offset="0" style="stop-color:#fff;stop-opacity:1"/><stop offset="1" style="stop-color:#eee;stop-opacity:1"/></radialGradient>
    </defs>
</svg>
